<svg width="393" height="200" viewBox="0 0 393 200" fill="none" xmlns="http://www.w3.org/2000/svg">
<path d="M42 0H0V140H42V0Z" fill="#0F0F0F"/>
<path d="M347.9 50H316.12C313.51 50 311.18 48.09 310.93 45.49C310.65 42.51 312.98 40 315.91 40H382.91V0H313.91C300.89 0 289.17 5.53 280.95 14.37C280.36 15.01 279.33 14.32 279.67 13.52C281.6 8.95 283.5 4.43 285.37 0H241.97L207.69 85.52L173.4 0H97C72.15 0 52 20.15 52 45V140H94V45.24C94 42.35 96.35 40 99.24 40H146.78C163.81 80.64 185.85 133.35 185.85 133.35C175.33 158.4 165.99 180.67 157.9 200H201.27C220.99 152.93 244.72 96.47 266.63 44.46C267.13 43.27 268.9 43.63 268.9 44.92V45C268.9 69.85 289.05 90 313.9 90H345.69C348.3 90 350.63 91.91 350.88 94.51C351.16 97.49 348.83 100 345.9 100H272.9V140H347.9C372.75 140 392.9 119.85 392.9 95C392.9 70.15 372.75 50 347.9 50Z" fill="#0F0F0F"/>
</svg>
