<svg width="500" height="500" viewBox="0 0 500 500" fill="none" xmlns="http://www.w3.org/2000/svg">
<path d="M449.558 113.682C447.25 95.399 418.908 79.0494 375.008 67.6413C341.05 58.8415 297.758 52.9416 250.008 51.4333C241.75 51.15 233.358 51 224.842 51C188.992 51 155.108 53.4249 124.992 57.7832C50.8917 68.4079 0 90.5658 0 116.14C0 233.512 50.8917 335.102 124.992 383.942C155.1 403.825 188.992 415 224.842 415C233.35 415 241.742 414.358 250.008 413.15C297.808 406.1 341.05 379.109 375 338.593C396.15 313.294 413.708 282.786 426.5 248.545C432.4 251.295 438.758 252.812 445.408 252.812C475.55 252.812 500 221.621 500 183.172C500 144.723 477.767 116.44 449.558 113.69V113.682ZM445.408 225.004C441.8 225.004 438.35 223.929 435.208 222.046C442.45 196.705 447.15 169.722 448.9 141.623C462.542 144.281 473.042 161.831 473.042 183.164C473.042 206.28 460.65 224.996 445.4 224.996L445.408 225.004Z" fill="white"/>
</svg>
